<?xml version="1.0" standalone="no"?>
<!DOCTYPE svg PUBLIC "-//W3C//DTD SVG 20010904//EN"
 "http://www.w3.org/TR/2001/REC-SVG-20010904/DTD/svg10.dtd">
<svg version="1.0" xmlns="http://www.w3.org/2000/svg"
 width="1301.000000pt" height="1301.000000pt" viewBox="0 0 1301.000000 1301.000000"
 preserveAspectRatio="xMidYMid meet">

<g transform="translate(0.000000,1301.000000) scale(0.100000,-0.100000)"
fill="#000000" stroke="none">
<path d="M3485 12989 c-512 -40 -1055 -202 -1507 -450 -161 -88 -407 -253
-556 -371 -262 -210 -570 -545 -761 -828 -296 -437 -498 -932 -591 -1444 -58
-320 -54 -97 -58 -3296 -2 -2055 0 -2980 8 -3085 80 -1104 621 -2095 1507
-2762 181 -136 364 -247 588 -358 466 -230 893 -346 1417 -385 98 -8 1065 -10
3078 -8 2700 4 2945 5 3060 21 500 68 878 185 1296 401 364 188 646 396 944
695 615 618 985 1396 1082 2276 19 177 19 6033 0 6210 -107 963 -547 1817
-1262 2449 -622 549 -1388 872 -2219 936 -165 12 -5862 11 -6026 -1z m6155
-1017 c627 -102 1149 -367 1572 -796 415 -420 673 -938 770 -1547 l23 -144 0
-2985 0 -2985 -23 -144 c-55 -345 -164 -667 -320 -946 -385 -690 -1040 -1182
-1802 -1354 -319 -72 -40 -66 -3350 -66 -2814 0 -2981 1 -3095 18 -637 96
-1167 360 -1602 799 -468 471 -739 1063 -793 1729 -8 93 -10 1015 -8 3039 l3
2905 23 139 c28 168 88 406 135 536 261 714 794 1288 1479 1592 283 125 567
196 928 232 19 1 1360 2 2980 2 l2945 -1 135 -23z"/>
<path d="M10393 10986 c-219 -53 -383 -261 -383 -486 0 -270 230 -500 500
-500 130 0 251 51 349 149 201 198 201 502 2 702 -126 126 -299 176 -468 135z"/>
<path d="M6290 9994 c-19 -2 -84 -9 -145 -14 -473 -45 -982 -212 -1403 -461
-425 -251 -815 -612 -1098 -1015 -340 -485 -543 -1027 -616 -1639 -17 -144
-17 -586 0 -730 104 -877 491 -1638 1127 -2218 554 -505 1226 -808 1990 -899
144 -17 586 -17 730 0 998 118 1848 606 2443 1401 468 624 713 1401 689 2176
-18 547 -140 1024 -386 1500 -176 342 -365 600 -646 881 -288 289 -583 498
-955 678 -355 171 -697 272 -1100 322 -110 14 -556 27 -630 18z m445 -1004
c481 -45 919 -217 1310 -513 95 -73 300 -271 381 -368 296 -355 490 -789 560
-1254 25 -166 26 -532 1 -700 -43 -293 -120 -535 -253 -796 -268 -527 -723
-945 -1274 -1172 -490 -202 -1043 -241 -1564 -111 -592 148 -1126 525 -1465
1034 -158 236 -271 492 -341 765 -61 239 -74 354 -74 625 0 271 13 386 74 625
90 354 249 669 483 960 84 104 300 314 402 392 334 252 695 412 1090 483 212
38 460 49 670 30z"/>
</g>
</svg>
