<?xml version="1.0" standalone="no"?>
<!DOCTYPE svg PUBLIC "-//W3C//DTD SVG 20010904//EN"
 "http://www.w3.org/TR/2001/REC-SVG-20010904/DTD/svg10.dtd">
<svg version="1.0" xmlns="http://www.w3.org/2000/svg"
 width="474.000000pt" height="363.000000pt" viewBox="0 0 474.000000 363.000000"
 preserveAspectRatio="xMidYMid meet">

<g transform="translate(0.000000,363.000000) scale(0.100000,-0.100000)"
fill="#000000" stroke="none">
<path d="M2160 3409 c-241 -31 -493 -128 -702 -271 -103 -70 -286 -240 -357
-333 -238 -309 -354 -673 -338 -1060 10 -232 62 -435 163 -638 240 -481 685
-804 1217 -883 148 -22 408 -14 547 16 421 91 773 325 1010 671 368 537 373
1253 11 1790 -233 346 -555 572 -967 679 -140 35 -423 50 -584 29z m775 -663
c77 -21 115 -39 181 -90 l62 -46 90 29 c50 17 114 42 142 56 29 15 54 25 56
23 2 -2 -8 -28 -21 -57 -30 -63 -86 -134 -135 -168 l-35 -25 48 6 c26 3 82 17
124 31 41 14 77 24 79 22 7 -7 -106 -135 -165 -188 l-61 -53 0 -76 c0 -95 -31
-282 -65 -389 -94 -297 -296 -570 -542 -734 -73 -48 -219 -119 -299 -146 -160
-53 -239 -65 -444 -65 -164 0 -210 3 -292 21 -119 27 -287 90 -377 140 l-66
38 125 6 c196 10 339 53 487 145 l78 48 -80 18 c-96 22 -185 71 -246 135 -46
47 -91 117 -104 161 -6 22 -5 22 83 22 49 0 92 3 95 7 4 3 -15 14 -43 24 -117
41 -235 158 -280 277 -21 55 -39 172 -27 172 4 0 28 -9 55 -19 26 -11 70 -22
98 -27 l49 -7 -50 45 c-136 124 -191 343 -126 508 34 89 30 89 117 -1 199
-205 463 -345 745 -394 46 -8 100 -15 120 -15 l36 0 -5 73 c-2 40 1 98 7 129
36 170 175 317 342 362 69 19 180 20 244 2z"/>
</g>
</svg>
